<svg version="1.1" id="Layer_1" xmlns="http://www.w3.org/2000/svg" xmlns:xlink="http://www.w3.org/1999/xlink" x="0px"
     y="0px"
     width="100%" viewBox="0 0 64 64" enable-background="new 0 0 64 64" xml:space="preserve">
<path fill="#000000" opacity="1.000000" stroke="none"
      d="
M40.000038,65.000000 
	C26.666685,65.000000 13.833352,65.000000 1.000014,65.000000 
	C1.000010,43.666672 1.000010,22.333345 1.000005,1.000014 
	C22.333326,1.000010 43.666653,1.000010 64.999985,1.000005 
	C64.999985,22.333326 64.999985,43.666653 64.999992,64.999985 
	C56.833351,65.000000 48.666702,65.000000 40.000038,65.000000 
M40.054802,38.829353 
	C40.326031,38.575848 40.597260,38.322346 41.096432,37.485371 
	C41.422485,36.735958 41.748543,35.986546 42.468525,34.768230 
	C42.998222,34.482258 43.527920,34.196285 44.934956,34.000244 
	C47.979691,33.743927 51.024422,33.487610 53.868561,33.248180 
	C53.490482,30.497646 53.097019,28.931372 53.093773,27.364290 
	C53.084671,22.968309 52.053345,20.148540 46.701653,22.018309 
	C45.712437,22.363920 44.287460,21.462290 42.956043,20.448637 
	C43.000717,19.990654 43.045391,19.532671 43.654537,18.554853 
	C43.762096,17.011059 43.869656,15.467263 44.027466,13.343794 
	C43.825130,12.787997 43.622795,12.232202 43.420460,11.676406 
	C42.947456,12.066124 42.474453,12.455842 41.325428,13.045470 
	C39.565639,14.085288 37.805855,15.125106 35.318577,15.790251 
	C33.167889,16.101418 31.017197,16.412584 28.279430,16.943104 
	C27.992004,17.245813 27.704576,17.548525 27.387896,16.930162 
	C26.250090,15.663462 25.112284,14.396762 23.407867,12.761609 
	C22.564257,11.183627 21.720646,9.605646 20.877033,8.027664 
	C20.264050,8.547708 19.651066,9.067752 19.038082,9.587796 
	C19.400797,11.719301 19.763512,13.850807 20.040272,16.705282 
	C20.068419,17.187799 20.096567,17.670317 20.019075,18.959503 
	C20.076065,20.569044 20.133057,22.178583 20.080673,24.591846 
	C20.396255,28.053509 20.711840,31.515171 21.057238,35.592857 
	C21.581856,35.876625 22.106476,36.160393 22.892782,36.953606 
	C22.982927,37.320446 23.073071,37.687286 23.130035,38.646019 
	C24.062395,38.724316 24.994753,38.802612 26.515753,38.739174 
	C27.289145,38.537285 28.062536,38.335396 29.714779,38.107521 
	C30.863209,38.096550 32.011639,38.085583 33.272537,38.733341 
	C34.587193,38.837135 35.901848,38.940929 37.933277,38.997730 
	C38.144646,38.885239 38.356010,38.772743 39.057991,38.472786 
	C39.214554,38.551125 39.371117,38.629463 39.110924,39.070274 
	C39.263325,39.164703 39.415730,39.259132 39.568130,39.353558 
	C39.532913,39.135269 39.497696,38.916981 39.471447,38.474415 
	C39.471447,38.474415 39.645233,38.332355 40.054802,38.829353 
M25.972025,47.002354 
	C25.972025,47.002354 25.915747,46.968792 25.299150,46.896774 
	C25.094065,46.924335 24.888979,46.951900 24.367847,46.766243 
	C24.367847,46.766243 24.015650,46.620289 23.602518,46.225800 
	C23.034304,46.190334 22.466091,46.154869 21.133636,45.955414 
	C21.388885,48.264034 21.644136,50.572655 22.441006,52.650043 
	C22.903883,51.835342 23.366758,51.020641 24.456583,50.365849 
	C25.805801,51.252701 27.155018,52.139553 29.016546,53.457344 
	C29.699961,53.308178 30.383375,53.159008 30.981781,52.968609 
	C30.981781,52.968609 30.929485,53.047298 31.665972,52.902687 
	C32.406479,52.898773 33.146988,52.894863 34.550365,52.897129 
	C34.988693,52.951626 35.427025,53.006119 36.145496,53.646557 
	C37.041496,53.464500 37.937492,53.282448 39.430119,53.043789 
	C39.973732,52.883278 40.517345,52.722763 41.060959,52.562252 
	C40.687912,52.357178 40.314865,52.152107 40.007328,51.074108 
	C38.994823,49.099255 42.851894,44.639187 36.528133,45.031403 
	C36.528133,45.031403 36.068207,45.109272 35.461323,45.142864 
	C35.445957,45.491875 35.430592,45.840885 35.441315,46.389755 
	C35.441315,46.389755 35.360806,46.574532 34.476006,46.292286 
	C34.192314,46.168465 33.908623,46.044640 33.234375,45.770439 
	C32.940205,45.707458 32.676067,45.770435 31.760077,45.870682 
	C31.142458,45.627739 30.524839,45.384796 29.277256,45.041687 
	C28.803574,45.342754 28.329893,45.643822 27.351078,46.032356 
	C27.183981,46.068123 27.016882,46.103889 26.386206,46.168133 
	C26.108658,46.354832 25.958279,46.615017 25.972025,47.002354 
M45.494408,52.334435 
	C46.656651,52.530800 47.818893,52.727169 49.668484,52.911690 
	C49.460968,51.225967 49.253452,49.540241 48.964924,47.137138 
	C46.203030,44.914524 46.079842,46.866505 45.939793,49.701458 
	C45.940933,50.435890 45.942078,51.170322 45.494408,52.334435 
M16.075674,51.528656 
	C16.153244,51.675011 16.201624,51.858128 16.320475,51.952488 
	C16.381582,52.001007 16.661896,51.920452 16.684258,51.848701 
	C17.020357,50.770313 17.329967,49.683666 17.645803,48.598957 
	C17.323757,48.515617 17.001711,48.432274 16.679663,48.348934 
	C16.461744,49.208961 16.243826,50.068993 16.075674,51.528656 
z"/>
    <path fill="#E9E5DC" opacity="1.000000" stroke="none"
          d="
M27.417152,17.851234 
	C27.704576,17.548525 27.992004,17.245813 28.925659,17.011883 
	C31.682331,17.226141 33.792770,17.371624 36.092957,17.723320 
	C37.003590,18.518839 37.724480,19.108141 38.528046,19.820229 
	C38.610729,19.943016 38.889481,20.043812 39.061455,20.334658 
	C40.147133,21.264126 41.060837,21.902748 41.948257,22.807117 
	C41.433540,24.036167 40.945103,24.999470 40.593842,26.234957 
	C40.604710,27.098597 40.478405,27.690048 40.148411,28.464104 
	C39.575905,29.042965 39.207088,29.439220 38.547234,29.859394 
	C38.062565,29.903519 37.868938,29.923725 37.453110,30.095390 
	C37.051769,30.744164 36.872627,31.241476 36.337700,31.780403 
	C35.032253,31.897045 34.082588,31.972075 33.281174,31.724016 
	C32.327419,31.257771 31.225420,31.114614 29.716980,30.991022 
	C28.770445,31.057180 28.230347,31.103773 27.457672,30.980278 
	C26.616285,30.390175 26.007473,29.970161 25.184113,29.297924 
	C24.378431,27.751368 23.787298,26.457035 22.938076,25.025890 
	C22.446953,24.582024 22.213919,24.274973 22.057274,23.696018 
	C22.353865,22.937351 22.574064,22.450592 22.886190,21.625961 
	C24.457794,20.142473 25.937473,18.996855 27.417152,17.851234 
z"/>
    <path fill="#C2D9D4" opacity="1.000000" stroke="none"
          d="
M40.456665,25.962770 
	C40.945103,24.999470 41.433540,24.036167 42.200020,22.630375 
	C42.673241,21.837362 42.868427,21.486843 43.063610,21.136324 
	C44.287460,21.462290 45.712437,22.363920 46.701653,22.018309 
	C52.053345,20.148540 53.084671,22.968309 53.093773,27.364290 
	C53.097019,28.931372 53.490482,30.497646 53.868561,33.248180 
	C51.024422,33.487610 47.979691,33.743927 44.437103,33.738297 
	C43.939255,33.476349 43.942837,33.026249 43.974129,33.035748 
	C44.005424,33.045246 44.048737,32.996239 44.362679,32.990437 
	C45.263412,32.911449 45.850208,32.838268 46.437000,32.765087 
	C46.445309,32.614250 46.453613,32.463413 46.461922,32.312572 
	C45.711945,32.197063 44.961967,32.081551 44.189934,31.549498 
	C44.573597,28.230349 43.657314,26.276690 40.456665,25.962770 
z"/>
    <path fill="#002E4C" opacity="1.000000" stroke="none"
          d="
M27.402523,17.390699 
	C25.937473,18.996855 24.457794,20.142473 22.641338,21.618717 
	C22.304562,21.949343 21.815367,21.975994 21.828457,21.655731 
	C21.269268,20.274591 20.696991,19.213713 20.124716,18.152834 
	C20.096567,17.670317 20.068419,17.187799 20.452934,16.348019 
	C21.901888,15.037192 22.938183,14.083627 23.974478,13.130062 
	C25.112284,14.396762 26.250090,15.663462 27.402523,17.390699 
z"/>
    <path fill="#21465F" opacity="1.000000" stroke="none"
          d="
M23.196167,25.162706 
	C23.787298,26.457035 24.378431,27.751368 24.977259,29.521299 
	C24.845875,30.144720 24.706799,30.292542 24.263611,30.296143 
	C23.298807,30.198301 22.638113,30.244684 21.977421,30.291067 
	C22.262295,31.857590 22.547171,33.424114 22.531586,34.968643 
	C21.829889,34.956711 21.428656,34.966774 21.027422,34.976837 
	C20.711840,31.515171 20.396255,28.053509 20.359322,24.190754 
	C20.637970,23.789663 21.040634,23.985769 21.083118,24.305565 
	C21.125601,25.256432 21.125601,25.887503 21.125601,26.518574 
	C21.463818,26.803869 21.802034,27.089165 22.140249,27.374460 
	C22.492224,26.637209 22.844196,25.899960 23.196167,25.162706 
z"/>
    <path fill="#E7E3DB" opacity="1.000000" stroke="none"
          d="
M38.833492,53.100395 
	C37.937492,53.282448 37.041496,53.464500 36.045044,53.092148 
	C35.518158,51.993835 35.091724,51.449932 34.499409,50.601559 
	C34.311932,49.630733 34.290337,48.964375 34.514919,48.179527 
	C34.960999,47.565533 35.160904,47.070034 35.360806,46.574532 
	C35.360806,46.574532 35.441315,46.389755 35.612793,46.168304 
	C35.863476,45.662422 35.958122,45.383228 36.068207,45.109272 
	C36.068207,45.109272 36.528133,45.031403 36.860264,45.266937 
	C37.329338,45.773232 37.548355,45.927368 37.809212,46.390228 
	C38.123814,48.910519 38.478653,51.005455 38.833492,53.100395 
z"/>
    <path fill="#21465F" opacity="1.000000" stroke="none"
          d="
M25.191807,29.773525 
	C26.007473,29.970161 26.616285,30.390175 27.483887,31.352629 
	C28.586002,32.913372 29.429323,33.931675 29.974915,35.130371 
	C29.639692,35.539795 29.602203,35.768826 29.404278,36.237629 
	C29.107870,37.029442 28.971899,37.581474 28.835928,38.133511 
	C28.062536,38.335396 27.289145,38.537285 26.223682,38.543606 
	C25.890070,38.175198 25.848528,38.002361 25.884962,37.366501 
	C25.897516,36.015537 25.832094,35.127590 25.766670,34.239639 
	C25.230581,34.524548 24.694494,34.809456 24.343754,34.538857 
	C24.654497,33.613628 24.779892,33.243904 25.150379,32.876034 
	C25.499933,32.752491 25.604397,32.627090 25.708860,32.501694 
	C25.459419,32.349644 25.209978,32.197598 24.922104,31.771206 
	C24.778353,31.144697 24.673037,30.792530 24.567720,30.440365 
	C24.706799,30.292542 24.845875,30.144720 25.191807,29.773525 
z"/>
    <path fill="#0E3854" opacity="1.000000" stroke="none"
          d="
M23.691174,12.945835 
	C22.938183,14.083627 21.901888,15.037192 20.495911,15.986534 
	C19.763512,13.850807 19.400797,11.719301 19.038082,9.587796 
	C19.651066,9.067752 20.264050,8.547708 20.877033,8.027664 
	C21.720646,9.605646 22.564257,11.183627 23.691174,12.945835 
z"/>
    <path fill="#18405A" opacity="1.000000" stroke="none"
          d="
M26.849785,46.139660 
	C27.016882,46.103889 27.183981,46.068123 27.683475,46.395199 
	C28.090874,48.395111 28.165876,50.032177 28.190956,51.905998 
	C28.142355,52.486488 28.263422,52.781040 28.504234,53.026405 
	C27.155018,52.139553 25.805801,51.252701 24.133995,49.836693 
	C23.879490,48.411785 23.947569,47.516037 24.015648,46.620289 
	C24.015650,46.620289 24.367847,46.766243 24.476751,47.209354 
	C25.010262,48.153854 25.434868,48.655243 25.981243,49.328411 
	C26.251301,49.193390 26.399593,48.886585 26.626465,48.244648 
	C26.441946,47.595936 26.178846,47.282364 25.915747,46.968792 
	C25.915747,46.968792 25.972025,47.002354 26.215881,47.107552 
	C26.589756,46.855057 26.719770,46.497356 26.849785,46.139660 
z"/>
    <path fill="#2C4F67" opacity="1.000000" stroke="none"
          d="
M38.445366,19.697443 
	C37.724480,19.108141 37.003590,18.518839 36.114624,17.383709 
	C35.979721,16.613562 36.012894,16.389242 36.046066,16.164925 
	C37.805855,15.125106 39.565639,14.085288 41.683441,13.182911 
	C42.041458,13.320352 42.028008,13.795580 41.861370,14.081640 
	C40.880203,15.819428 40.065670,17.271156 39.043228,18.961178 
	C38.705334,19.365459 38.575352,19.531452 38.445366,19.697443 
z"/>
    <path fill="#3B5A6F" opacity="1.000000" stroke="none"
          d="
M49.045937,47.854523 
	C49.253452,49.540241 49.460968,51.225967 49.205574,52.581154 
	C47.809513,52.135326 46.876366,52.020042 45.943222,51.904755 
	C45.942078,51.170322 45.940933,50.435890 46.224834,49.217049 
	C47.355232,48.439934 48.200584,48.147228 49.045937,47.854523 
z"/>
    <path fill="#103B56" opacity="1.000000" stroke="none"
          d="
M34.268745,48.298016 
	C34.290337,48.964375 34.311932,49.630733 34.065277,50.624420 
	C33.508934,50.981339 33.220833,51.010925 32.642342,51.104198 
	C31.877794,51.794357 31.403639,52.420826 30.929485,53.047295 
	C30.929485,53.047298 30.981781,52.968609 30.597374,52.759869 
	C30.428198,51.627411 30.643431,50.703690 30.847820,49.806458 
	C30.836975,49.832947 30.759842,49.812313 31.030411,49.466629 
	C31.681307,48.067081 32.061634,47.013226 32.441963,45.959366 
	C32.676067,45.770435 32.940205,45.707458 33.478905,46.257095 
	C33.905201,47.261841 34.086975,47.779930 34.268745,48.298016 
z"/>
    <path fill="#0E3854" opacity="1.000000" stroke="none"
          d="
M35.682320,15.977587 
	C36.012894,16.389242 35.979721,16.613562 35.924881,17.177494 
	C33.792770,17.371624 31.682331,17.226141 29.219198,16.902206 
	C31.017197,16.412584 33.167889,16.101418 35.682320,15.977587 
z"/>
    <path fill="#06314E" opacity="1.000000" stroke="none"
          d="
M23.809082,46.423042 
	C23.947569,47.516037 23.879490,48.411785 23.820522,49.756737 
	C23.366758,51.020641 22.903883,51.835342 22.198181,52.343952 
	C21.936195,50.065044 21.917036,48.092224 21.897877,46.119408 
	C22.466091,46.154869 23.034304,46.190334 23.809082,46.423042 
z"/>
    <path fill="#002E4C" opacity="1.000000" stroke="none"
          d="
M39.131805,53.072090 
	C38.478653,51.005455 38.123814,48.910519 38.189415,46.500538 
	C39.053844,48.106007 39.497829,50.026520 39.941818,51.947033 
	C40.314865,52.152107 40.687912,52.357178 41.060959,52.562252 
	C40.517345,52.722763 39.973732,52.883278 39.131805,53.072090 
z"/>
    <path fill="#3F5E72" opacity="1.000000" stroke="none"
          d="
M43.009827,20.792480 
	C42.868427,21.486843 42.673241,21.837362 42.226299,22.364624 
	C41.060837,21.902748 40.147133,21.264126 39.319962,20.163315 
	C39.575092,19.328474 39.743694,18.955820 40.104424,18.435736 
	C41.067787,18.412176 41.839020,18.536049 42.730103,18.763737 
	C42.849949,18.867552 43.090069,19.074688 43.090065,19.074688 
	C43.045391,19.532671 43.000717,19.990654 43.009827,20.792480 
z"/>
    <path fill="#AEB5B7" opacity="1.000000" stroke="none"
          d="
M39.974571,51.510571 
	C39.497829,50.026520 39.053844,48.106007 38.229652,46.075188 
	C37.548355,45.927368 37.329338,45.773232 37.086609,45.323196 
	C42.851894,44.639187 38.994823,49.099255 39.974571,51.510571 
z"/>
    <path fill="#C6C6C6" opacity="1.000000" stroke="none"
          d="
M28.240879,51.669247 
	C28.165876,50.032177 28.090874,48.395111 27.936043,46.351463 
	C28.329893,45.643822 28.803574,45.342754 29.632450,45.561935 
	C30.029272,46.994537 30.070900,47.906891 29.872105,48.561127 
	C29.466398,49.152950 29.301115,50.002895 28.910933,51.055672 
	C28.537647,51.395416 28.389263,51.532333 28.240879,51.669247 
z"/>
    <path fill="#DBD9D4" opacity="1.000000" stroke="none"
          d="
M39.527683,38.707802 
	C39.371117,38.629463 39.214554,38.551125 38.892593,38.216755 
	C38.445629,37.306568 38.164066,36.652409 37.868614,35.660133 
	C37.890903,34.878445 37.927082,34.434879 38.257683,33.982002 
	C38.719391,34.075554 38.886673,34.178413 39.158966,34.505440 
	C39.510784,35.156109 39.757599,35.582603 39.983223,36.400101 
	C39.826065,37.294506 39.690098,37.797920 39.578995,38.303570 
	C39.603855,38.305809 39.645233,38.332355 39.645233,38.332355 
	C39.645233,38.332355 39.471447,38.474415 39.479469,38.616470 
	C39.487495,38.758526 39.527683,38.707802 39.527683,38.707802 
z"/>
    <path fill="#EEECEB" opacity="1.000000" stroke="none"
          d="
M37.216507,39.044724 
	C35.901848,38.940929 34.587193,38.837135 33.709824,38.264175 
	C34.261166,37.228935 34.375221,36.662861 34.461006,36.123367 
	C34.432735,36.149956 34.457657,36.023113 34.462879,36.442177 
	C35.280060,36.998161 36.092018,37.135086 36.919235,37.573009 
	C37.028496,38.264248 37.122501,38.654488 37.216507,39.044724 
z"/>
    <path fill="#718691" opacity="1.000000" stroke="none"
          d="
M21.515759,46.037411 
	C21.917036,48.092224 21.936195,50.065044 21.927370,52.459568 
	C21.644136,50.572655 21.388885,48.264034 21.515759,46.037411 
z"/>
    <path fill="#21465F" opacity="1.000000" stroke="none"
          d="
M49.005432,47.495831 
	C48.200584,48.147228 47.355232,48.439934 46.282982,48.854210 
	C46.079842,46.866505 46.203030,44.914524 49.005432,47.495831 
z"/>
    <path fill="#BAC1C0" opacity="1.000000" stroke="none"
          d="
M21.040634,23.985769 
	C21.040634,23.985769 20.637970,23.789663 20.414009,23.788895 
	C20.133057,22.178583 20.076065,20.569044 20.071896,18.556168 
	C20.696991,19.213713 21.269268,20.274591 21.563162,21.803467 
	C21.175137,22.856421 21.065495,23.441374 20.983940,24.030527 
	C21.012030,24.034725 21.040634,23.985769 21.040634,23.985769 
z"/>
    <path fill="#042F4D" opacity="1.000000" stroke="none"
          d="
M16.050791,51.228836 
	C16.243826,50.068993 16.461744,49.208961 16.679663,48.348934 
	C17.001711,48.432274 17.323757,48.515617 17.645803,48.598957 
	C17.329967,49.683666 17.020357,50.770313 16.684258,51.848701 
	C16.661896,51.920452 16.381582,52.001007 16.320475,51.952488 
	C16.201624,51.858128 16.153244,51.675011 16.050791,51.228836 
z"/>
    <path fill="#2C4F67" opacity="1.000000" stroke="none"
          d="
M34.489273,36.096783 
	C34.375221,36.662861 34.261166,37.228935 33.653591,37.934814 
	C32.011639,38.085583 30.863209,38.096550 29.275352,38.120514 
	C28.971899,37.581474 29.107870,37.029442 29.768906,36.497910 
	C31.692404,36.377872 33.090839,36.237328 34.489273,36.096783 
z"/>
    <path fill="#516C7D" opacity="1.000000" stroke="none"
          d="
M30.112528,48.819248 
	C30.070900,47.906891 30.029272,46.994537 29.947433,45.612015 
	C30.524839,45.384796 31.142458,45.627739 32.101021,45.915024 
	C32.061634,47.013226 31.681307,48.067081 30.968529,49.269630 
	C30.367897,49.300400 30.193380,49.100708 30.112528,48.819248 
z"/>
    <path fill="#718691" opacity="1.000000" stroke="none"
          d="
M25.806984,37.829521 
	C25.848528,38.002361 25.890070,38.175198 25.929363,38.614475 
	C24.994753,38.802612 24.062395,38.724316 23.385376,38.226437 
	C23.815886,37.497387 23.991055,37.187920 24.353556,37.027740 
	C24.962919,37.394524 25.384953,37.612022 25.806984,37.829521 
z"/>
    <path fill="#3F5E72" opacity="1.000000" stroke="none"
          d="
M43.977211,13.923468 
	C43.869656,15.467263 43.762096,17.011059 43.372303,18.814770 
	C43.090069,19.074688 42.849949,18.867552 42.846634,18.383039 
	C42.945232,16.576374 43.047146,15.254219 43.355873,13.908458 
	C43.562687,13.884851 43.977215,13.923468 43.977211,13.923468 
z"/>
    <path fill="#042F4D" opacity="1.000000" stroke="none"
          d="
M44.002342,13.633631 
	C43.977215,13.923468 43.562687,13.884851 43.083107,13.812744 
	C42.411686,13.758952 42.219845,13.777267 42.028008,13.795580 
	C42.028008,13.795580 42.041458,13.320352 42.021454,13.082955 
	C42.474453,12.455842 42.947456,12.066124 43.420460,11.676405 
	C43.622795,12.232202 43.825130,12.787997 44.002342,13.633631 
z"/>
    <path fill="#18405A" opacity="1.000000" stroke="none"
          d="
M39.554134,38.301331 
	C39.690098,37.797920 39.826065,37.294506 40.178402,36.197742 
	C40.869236,35.305691 41.343697,35.006992 41.873432,34.844788 
	C41.928707,34.981281 42.074596,35.237133 42.074596,35.237133 
	C41.748543,35.986546 41.422485,36.735958 40.646103,37.790863 
	C39.981888,38.164677 39.768009,38.233006 39.554134,38.301331 
z"/>
    <path fill="#C6C6C6" opacity="1.000000" stroke="none"
          d="
M30.858665,49.779976 
	C30.643431,50.703690 30.428198,51.627411 30.639877,52.780487 
	C30.383375,53.159008 29.699961,53.308178 28.760391,53.241875 
	C28.263422,52.781040 28.142355,52.486488 28.190956,51.905998 
	C28.389263,51.532333 28.537647,51.395416 29.350269,50.801308 
	C30.295893,50.156071 30.577278,49.968021 30.858665,49.779976 
z"/>
    <path fill="#C6C6C6" opacity="1.000000" stroke="none"
          d="
M31.297728,52.974991 
	C31.403639,52.420826 31.877794,51.794357 32.772575,51.337543 
	C33.424633,51.968449 33.656067,52.429699 33.887497,52.890949 
	C33.146988,52.894863 32.406479,52.898773 31.297728,52.974991 
z"/>
    <path fill="#35566C" opacity="1.000000" stroke="none"
          d="
M34.218933,52.894039 
	C33.656067,52.429699 33.424633,51.968449 33.062969,51.273853 
	C33.220833,51.010925 33.508934,50.981339 34.231163,50.928886 
	C35.091724,51.449932 35.518158,51.993835 35.904972,52.799179 
	C35.427025,53.006119 34.988693,52.951626 34.218933,52.894039 
z"/>
    <path fill="#DBD9D4" opacity="1.000000" stroke="none"
          d="
M45.718811,52.119595 
	C46.876366,52.020042 47.809513,52.135326 48.861900,52.587074 
	C47.818893,52.727169 46.656651,52.530800 45.718811,52.119595 
z"/>
    <path fill="#264A62" opacity="1.000000" stroke="none"
          d="
M37.574890,39.021229 
	C37.122501,38.654488 37.028496,38.264248 37.026340,37.322071 
	C37.372959,36.512836 37.627731,36.255543 37.882504,35.998253 
	C38.164066,36.652409 38.445629,37.306568 38.647285,38.310486 
	C38.356010,38.772743 38.144646,38.885239 37.574890,39.021229 
z"/>
    <path fill="#3F5E72" opacity="1.000000" stroke="none"
          d="
M43.942837,33.026249 
	C43.942837,33.026249 43.939255,33.476349 43.998436,33.693333 
	C43.527920,34.196285 42.998222,34.482258 42.271561,35.002682 
	C42.074596,35.237133 41.928707,34.981281 41.899330,34.539505 
	C41.997478,33.711403 42.124996,33.325073 42.534813,32.946560 
	C43.192352,32.978333 43.567596,33.002289 43.942837,33.026249 
z"/>
    <path fill="#516C7D" opacity="1.000000" stroke="none"
          d="
M34.514923,48.179527 
	C34.086975,47.779930 33.905201,47.261841 33.674179,46.332283 
	C33.908623,46.044640 34.192314,46.168465 34.918404,46.433411 
	C35.160904,47.070034 34.960999,47.565533 34.514923,48.179527 
z"/>
    <path fill="#9DA8AC" opacity="1.000000" stroke="none"
          d="
M25.607449,46.932785 
	C26.178846,47.282364 26.441946,47.595936 26.445164,48.377884 
	C26.185286,48.846256 25.859476,49.156631 25.859476,49.156631 
	C25.434868,48.655243 25.010262,48.153854 24.634773,47.315964 
	C24.888979,46.951900 25.094065,46.924335 25.607449,46.932785 
z"/>
    <path fill="#35566C" opacity="1.000000" stroke="none"
          d="
M24.166225,36.878452 
	C23.991055,37.187920 23.815886,37.497387 23.401966,37.930489 
	C23.073071,37.687286 22.982927,37.320446 22.955372,36.470528 
	C23.146469,35.838322 23.274975,35.689198 23.572498,35.534691 
	C23.741518,35.529305 24.076553,35.575535 24.071522,35.903152 
	C24.099735,36.446671 24.132980,36.662563 24.166225,36.878452 
z"/>
    <path fill="#35566C" opacity="1.000000" stroke="none"
          d="
M21.042330,35.284847 
	C21.428656,34.966774 21.829889,34.956711 22.724400,35.054054 
	C23.217678,35.161457 23.403481,35.540077 23.403481,35.540077 
	C23.274975,35.689198 23.146469,35.838322 22.824530,36.215805 
	C22.106476,36.160393 21.581856,35.876625 21.042330,35.284847 
z"/>
    <path fill="#516C7D" opacity="1.000000" stroke="none"
          d="
M39.319305,38.889038 
	C39.527683,38.707802 39.487495,38.758526 39.474987,38.728607 
	C39.497696,38.916981 39.532913,39.135269 39.568130,39.353558 
	C39.415730,39.259132 39.263325,39.164703 39.319305,38.889038 
z"/>
    <path fill="#516C7D" opacity="1.000000" stroke="none"
          d="
M39.578995,38.303570 
	C39.768009,38.233006 39.981888,38.164677 40.532131,38.082596 
	C40.597260,38.322346 40.326031,38.575848 39.850018,38.580856 
	C39.645233,38.332355 39.603855,38.305809 39.578995,38.303570 
z"/>
    <path fill="#9DA8AC" opacity="1.000000" stroke="none"
          d="
M26.617996,46.153896 
	C26.719770,46.497356 26.589756,46.855057 26.197403,47.080723 
	C25.958279,46.615017 26.108658,46.354832 26.617996,46.153896 
z"/>
    <path fill="#516C7D" opacity="1.000000" stroke="none"
          d="
M35.764763,45.126068 
	C35.958122,45.383228 35.863476,45.662422 35.599747,46.068375 
	C35.430592,45.840885 35.445957,45.491875 35.764763,45.126068 
z"/>
    <path fill="#CCCDCA" opacity="1.000000" stroke="none"
          d="
M34.461006,36.123367 
	C33.090839,36.237328 31.692404,36.377872 29.929344,36.258133 
	C29.602203,35.768826 29.639692,35.539795 30.092192,35.071159 
	C30.660952,34.742008 30.812851,34.649429 31.307468,34.364594 
	C32.044022,33.420773 32.436005,32.666183 32.927406,31.893297 
	C33.026829,31.875002 33.132927,32.047104 33.132927,32.047104 
	C34.082588,31.972075 35.032253,31.897045 36.417267,31.827873 
	C36.852615,31.833733 36.976246,31.969738 36.862442,32.255856 
	C36.670296,32.944252 36.591949,33.346531 36.171352,33.847763 
	C35.371952,34.638847 34.914803,35.330978 34.457657,36.023113 
	C34.457657,36.023113 34.432735,36.149956 34.461006,36.123367 
z"/>
    <path fill="#103B56" opacity="1.000000" stroke="none"
          d="
M43.974129,33.035748 
	C43.567596,33.002289 43.192352,32.978333 42.561253,32.557602 
	C41.866714,31.101835 41.428040,30.042841 40.843559,28.796001 
	C40.697754,28.608156 40.352097,28.281500 40.352097,28.281500 
	C40.478405,27.690048 40.604710,27.098597 40.593842,26.234957 
	C43.657314,26.276690 44.573597,28.230349 44.123802,31.802616 
	C44.069397,32.646931 44.059067,32.821583 44.048737,32.996239 
	C44.048737,32.996239 44.005424,33.045246 43.974129,33.035748 
z"/>
    <path fill="#D1D0CC" opacity="1.000000" stroke="none"
          d="
M30.962902,34.553822 
	C30.812851,34.649429 30.660952,34.742008 30.389923,34.890766 
	C29.429323,33.931675 28.586002,32.913372 27.716465,31.522720 
	C28.230347,31.103773 28.770445,31.057180 29.971573,31.067013 
	C31.047241,31.440853 31.461878,31.758265 31.751762,32.389633 
	C31.405638,33.320332 31.184271,33.937077 30.962902,34.553822 
z"/>
    <path fill="#06314E" opacity="1.000000" stroke="none"
          d="
M31.876516,32.075676 
	C31.461878,31.758265 31.047241,31.440853 30.378010,31.047451 
	C31.225420,31.114614 32.327419,31.257771 33.281174,31.724016 
	C33.132927,32.047104 33.026829,31.875002 32.685410,31.910368 
	C32.343994,31.945734 31.876516,32.075676 31.876516,32.075676 
z"/>
    <path fill="#B5BBBB" opacity="1.000000" stroke="none"
          d="
M22.938080,25.025890 
	C22.844196,25.899960 22.492224,26.637209 22.140249,27.374460 
	C21.802034,27.089165 21.463818,26.803869 21.125601,26.518574 
	C21.125601,25.887503 21.125601,25.256432 21.083118,24.305565 
	C21.040634,23.985769 21.012030,24.034725 21.244511,24.091681 
	C21.644955,24.088398 21.812920,24.028160 21.980883,23.967922 
	C22.213919,24.274973 22.446953,24.582024 22.938080,25.025890 
z"/>
    <path fill="#21465F" opacity="1.000000" stroke="none"
          d="
M22.057274,23.696018 
	C21.812920,24.028160 21.644955,24.088398 21.216423,24.087482 
	C21.065495,23.441374 21.175137,22.856421 21.550072,22.123730 
	C21.815367,21.975994 22.304562,21.949343 22.549414,21.956587 
	C22.574064,22.450592 22.353865,22.937351 22.057274,23.696018 
z"/>
    <path fill="#103B56" opacity="1.000000" stroke="none"
          d="
M37.675308,29.943930 
	C37.868938,29.923725 38.062565,29.903519 38.740604,30.047871 
	C39.354160,30.337837 39.483311,30.463247 39.470200,30.868483 
	C38.855843,31.457932 38.383743,31.767559 37.569302,31.819633 
	C37.376408,31.022696 37.525856,30.483313 37.675308,29.943930 
z"/>
    <path fill="#D1D0CC" opacity="1.000000" stroke="none"
          d="
M37.453110,30.095390 
	C37.525856,30.483313 37.376408,31.022696 37.594704,31.798889 
	C37.962444,32.035698 38.009644,31.990015 37.755718,31.759598 
	C37.326607,31.676035 37.151424,31.822886 36.976246,31.969738 
	C36.976246,31.969738 36.852615,31.833733 36.773048,31.786263 
	C36.872627,31.241476 37.051769,30.744164 37.453110,30.095390 
z"/>
    <path fill="#103B56" opacity="1.000000" stroke="none"
          d="
M39.031643,30.023952 
	C39.207088,29.439220 39.575905,29.042965 40.148407,28.464104 
	C40.352097,28.281500 40.697754,28.608156 40.790115,29.068321 
	C40.459141,29.881878 40.035797,30.235268 39.612457,30.588659 
	C39.483311,30.463247 39.354160,30.337837 39.031643,30.023952 
z"/>
    <path fill="#2C4F67" opacity="1.000000" stroke="none"
          d="
M39.912292,18.583168 
	C39.743694,18.955820 39.575092,19.328474 39.147987,19.872471 
	C38.889481,20.043812 38.610729,19.943016 38.528046,19.820229 
	C38.575352,19.531452 38.705334,19.365459 39.204124,18.905495 
	C39.572937,18.611519 39.912296,18.583168 39.912292,18.583168 
z"/>
    <path fill="#1799A5" opacity="1.000000" stroke="none"
          d="
M44.362679,32.990437 
	C44.059067,32.821583 44.069397,32.646931 44.145859,32.219158 
	C44.961967,32.081551 45.711945,32.197063 46.461922,32.312572 
	C46.453613,32.463413 46.445309,32.614250 46.437000,32.765087 
	C45.850208,32.838268 45.263412,32.911449 44.362679,32.990437 
z"/>
    <path fill="#EFEAE0" opacity="1.000000" stroke="none"
          d="
M23.572498,35.534691 
	C23.403481,35.540077 23.217678,35.161457 23.024862,35.076046 
	C22.547171,33.424114 22.262295,31.857590 21.977421,30.291067 
	C22.638113,30.244684 23.298807,30.198301 24.263611,30.296143 
	C24.673037,30.792530 24.778353,31.144697 24.827896,31.972969 
	C24.772120,32.449074 24.905285,32.874180 24.905285,32.874180 
	C24.779892,33.243904 24.654497,33.613628 24.274952,34.566841 
	C24.020803,35.150330 24.076553,35.575535 24.076553,35.575535 
	C24.076553,35.575535 23.741518,35.529305 23.572498,35.534691 
z"/>
    <path fill="#C6C6C6" opacity="1.000000" stroke="none"
          d="
M24.071522,35.903152 
	C24.076553,35.575535 24.020803,35.150330 24.089603,35.122345 
	C24.694494,34.809456 25.230581,34.524548 25.766670,34.239639 
	C25.832094,35.127590 25.897516,36.015537 25.884962,37.366501 
	C25.384953,37.612022 24.962919,37.394524 24.353556,37.027740 
	C24.132980,36.662563 24.099735,36.446671 24.071522,35.903152 
z"/>
    <path fill="#A8B0B2" opacity="1.000000" stroke="none"
          d="
M25.150379,32.876034 
	C24.905285,32.874180 24.772120,32.449074 24.866327,32.247311 
	C25.209978,32.197598 25.459419,32.349644 25.708860,32.501694 
	C25.604397,32.627090 25.499933,32.752491 25.150379,32.876034 
z"/>
    <path fill="#9DA8AC" opacity="1.000000" stroke="none"
          d="
M26.366585,48.713020 
	C26.399593,48.886585 26.251301,49.193390 25.981243,49.328411 
	C25.859476,49.156631 26.185286,48.846256 26.366585,48.713020 
z"/>
    <path fill="#DBD9D4" opacity="1.000000" stroke="none"
          d="
M40.104424,18.435738 
	C39.912296,18.583168 39.572937,18.611519 39.412037,18.667202 
	C40.065670,17.271156 40.880203,15.819428 41.861370,14.081640 
	C42.219845,13.777267 42.411686,13.758952 42.876289,13.836351 
	C43.047146,15.254219 42.945232,16.576374 42.726791,18.279224 
	C41.839020,18.536049 41.067787,18.412176 40.104424,18.435738 
z"/>
    <path fill="#000000" opacity="1.000000" stroke="none"
          d="
M30.847820,49.806461 
	C30.577278,49.968021 30.295893,50.156071 29.575169,50.598480 
	C29.301115,50.002895 29.466398,49.152950 29.872105,48.561127 
	C30.193380,49.100708 30.367897,49.300400 30.697960,49.615318 
	C30.759842,49.812313 30.836975,49.832947 30.847820,49.806461 
z"/>
    <path fill="#D1D0CC" opacity="1.000000" stroke="none"
          d="
M39.470200,30.868483 
	C40.035797,30.235268 40.459141,29.881878 40.935921,29.256168 
	C41.428040,30.042841 41.866714,31.101835 42.278954,32.549786 
	C42.124996,33.325073 41.997478,33.711403 41.844055,34.403015 
	C41.343697,35.006992 40.869236,35.305691 40.199593,35.806747 
	C39.757599,35.582603 39.510784,35.156109 39.155571,34.177254 
	C38.701328,33.079937 38.355484,32.534977 38.009644,31.990017 
	C38.009644,31.990015 37.962444,32.035698 37.937042,32.056442 
	C38.383743,31.767559 38.855843,31.457932 39.470200,30.868483 
z"/>
    <path fill="#0E3854" opacity="1.000000" stroke="none"
          d="
M34.462875,36.442177 
	C34.914803,35.330978 35.371952,34.638847 36.530350,33.929623 
	C37.475483,33.938789 37.719372,33.965050 37.963261,33.991310 
	C37.927082,34.434879 37.890903,34.878445 37.868614,35.660133 
	C37.627731,36.255543 37.372959,36.512836 37.011082,37.021069 
	C36.092018,37.135086 35.280060,36.998161 34.462875,36.442177 
z"/>
    <path fill="#264A62" opacity="1.000000" stroke="none"
          d="
M38.257683,33.982002 
	C37.719372,33.965050 37.475483,33.938789 36.872601,33.830669 
	C36.591949,33.346531 36.670296,32.944252 36.862442,32.255856 
	C37.151424,31.822886 37.326607,31.676035 37.755718,31.759600 
	C38.355484,32.534977 38.701328,33.079937 39.050568,33.953087 
	C38.886673,34.178413 38.719391,34.075554 38.257683,33.982002 
z"/>
    <path fill="#3B5A6F" opacity="1.000000" stroke="none"
          d="
M31.751762,32.389633 
	C31.876516,32.075676 32.343994,31.945734 32.585991,31.928663 
	C32.436005,32.666183 32.044022,33.420773 31.307468,34.364594 
	C31.184271,33.937077 31.405638,33.320332 31.751762,32.389633 
z"/>
</svg>